<?xml version="1.0" encoding="UTF-8"?>
<svg xmlns="http://www.w3.org/2000/svg" xmlns:xlink="http://www.w3.org/1999/xlink" width="96px" height="26px" viewBox="0 0 95 26" version="1.1">
<g id="surface1">
<path style=" stroke:none;fill-rule:nonzero;fill:rgb(0%,0%,0%);fill-opacity:1;" d="M 20.085938 0.664062 C 19.832031 0.898438 19.640625 1.496094 18.855469 4.566406 L 18.738281 5.023438 L 9.851562 5.046875 L 0.972656 5.078125 L 0.699219 5.335938 C 0.519531 5.503906 0.421875 5.707031 0.421875 5.921875 C 0.421875 6.105469 0.867188 7.792969 1.410156 9.675781 C 1.960938 11.558594 2.605469 13.824219 2.859375 14.722656 C 3.113281 15.609375 3.410156 16.453125 3.507812 16.59375 L 3.695312 16.839844 L 9.691406 16.871094 L 15.699219 16.890625 L 15.625 17.191406 C 15.582031 17.351562 15.488281 17.746094 15.421875 18.066406 L 15.296875 18.65625 L 9.851562 18.707031 L 4.394531 18.761719 L 4.363281 19.542969 L 4.332031 20.3125 L 16.089844 20.3125 L 16.367188 20.066406 C 16.589844 19.875 16.714844 19.53125 17.054688 18.175781 C 17.628906 15.863281 18.835938 11.097656 19.597656 8.179688 C 19.945312 6.820312 20.421875 4.929688 20.667969 3.957031 C 20.910156 2.984375 21.121094 2.171875 21.15625 2.136719 C 21.1875 2.105469 21.90625 2.085938 22.753906 2.085938 L 24.3125 2.085938 L 24.3125 0.480469 L 22.332031 0.449219 C 20.402344 0.425781 20.347656 0.425781 20.085938 0.664062 Z M 18.242188 6.683594 C 18.304688 6.757812 17.5 9.964844 17.382812 10.082031 C 17.339844 10.125 16.527344 10.144531 15.5625 10.136719 L 13.824219 10.101562 L 13.792969 8.425781 L 13.761719 6.746094 L 15.328125 6.703125 C 16.195312 6.691406 17.183594 6.660156 17.542969 6.648438 C 17.890625 6.640625 18.210938 6.648438 18.242188 6.683594 Z M 6.96875 8.414062 L 6.9375 10.101562 L 5.105469 10.136719 C 2.964844 10.167969 3.273438 10.402344 2.660156 8.199219 L 2.257812 6.734375 L 7.003906 6.734375 Z M 12.160156 8.414062 L 12.128906 10.101562 L 8.316406 10.101562 L 8.285156 8.414062 L 8.253906 6.734375 L 12.191406 6.734375 Z M 6.96875 13.546875 L 6.992188 15.289062 L 5.828125 15.289062 C 5.191406 15.289062 4.660156 15.265625 4.660156 15.246094 C 4.660156 15.222656 4.449219 14.453125 4.183594 13.535156 C 3.917969 12.605469 3.707031 11.835938 3.707031 11.800781 C 3.707031 11.78125 4.4375 11.769531 5.328125 11.78125 L 6.9375 11.8125 Z M 12.183594 13.523438 L 12.183594 15.289062 L 8.261719 15.289062 L 8.261719 11.761719 L 12.183594 11.761719 Z M 16.949219 11.941406 C 16.9375 12.046875 16.757812 12.828125 16.546875 13.683594 L 16.144531 15.234375 L 13.769531 15.296875 L 13.769531 11.761719 L 15.359375 11.761719 C 16.800781 11.761719 16.949219 11.78125 16.949219 11.941406 Z M 16.949219 11.941406 "/>
<path style=" stroke:none;fill-rule:nonzero;fill:rgb(0%,0%,0%);fill-opacity:1;" d="M 28.441406 6.191406 C 27.023438 6.605469 25.941406 7.453125 25.339844 8.59375 C 25.074219 9.097656 25.054688 9.238281 25.054688 10.371094 C 25.054688 11.449219 25.085938 11.652344 25.308594 12.082031 C 25.972656 13.351562 26.558594 13.78125 29.28125 15.019531 C 30.382812 15.511719 31.460938 16.035156 31.671875 16.1875 C 32.109375 16.472656 32.414062 17.019531 32.414062 17.523438 C 32.414062 19.648438 28.992188 19.992188 26.546875 18.121094 C 26.058594 17.734375 26.039062 17.734375 25.835938 17.917969 C 25.613281 18.121094 24.554688 19.414062 24.429688 19.640625 C 24.386719 19.722656 24.597656 19.949219 25.019531 20.269531 C 25.859375 20.890625 26.398438 21.167969 27.542969 21.550781 C 28.347656 21.832031 28.582031 21.863281 29.820312 21.863281 C 30.984375 21.863281 31.3125 21.820312 31.9375 21.617188 C 32.964844 21.265625 33.675781 20.835938 34.257812 20.207031 C 35.816406 18.527344 35.828125 15.941406 34.289062 14.378906 C 33.644531 13.738281 33.09375 13.4375 30.867188 12.507812 C 28.335938 11.449219 27.964844 11.152344 27.964844 10.15625 C 27.964844 9.085938 28.71875 8.550781 30.203125 8.550781 C 31.261719 8.550781 31.929688 8.734375 32.765625 9.246094 C 33.105469 9.449219 33.410156 9.621094 33.464844 9.621094 C 33.582031 9.621094 34.851562 8.019531 34.851562 7.867188 C 34.851562 7.71875 33.898438 7.003906 33.230469 6.660156 C 31.9375 6.007812 29.789062 5.792969 28.441406 6.191406 Z M 28.441406 6.191406 "/>
<path style=" stroke:none;fill-rule:nonzero;fill:rgb(0%,0%,0%);fill-opacity:1;" d="M 58.179688 6.199219 C 55.128906 7.011719 53.285156 9.835938 53.285156 13.738281 C 53.285156 18.546875 55.679688 21.628906 59.628906 21.882812 C 62.394531 22.066406 64.765625 20.699219 65.921875 18.269531 C 66.671875 16.699219 66.789062 16.089844 66.789062 13.84375 C 66.789062 12.15625 66.757812 11.8125 66.546875 11.074219 C 65.804688 8.476562 64.195312 6.789062 61.90625 6.199219 C 60.828125 5.921875 59.238281 5.921875 58.179688 6.199219 Z M 61.492188 8.808594 C 62.5 9.300781 63.09375 10.050781 63.515625 11.375 C 63.769531 12.144531 63.804688 12.421875 63.8125 13.792969 C 63.8125 14.925781 63.769531 15.523438 63.644531 15.992188 C 63.082031 18.066406 61.96875 19.191406 60.328125 19.328125 C 58.472656 19.480469 57.042969 18.226562 56.492188 15.972656 C 56.25 14.96875 56.25 12.710938 56.492188 11.769531 C 56.875 10.339844 57.628906 9.289062 58.632812 8.808594 C 59.394531 8.445312 60.742188 8.445312 61.492188 8.808594 Z M 61.492188 8.808594 "/>
<path style=" stroke:none;fill-rule:nonzero;fill:rgb(0%,0%,0%);fill-opacity:1;" d="M 38.261719 13.867188 L 38.292969 21.542969 L 39.757812 21.574219 L 41.207031 21.605469 L 41.207031 14.96875 L 44.066406 14.96875 C 45.644531 14.96875 46.960938 14.96875 47.011719 14.96875 C 47.054688 14.96875 47.109375 16.441406 47.140625 18.25 L 47.191406 21.542969 L 48.65625 21.574219 L 50.105469 21.605469 L 50.105469 6.191406 L 48.65625 6.222656 L 47.191406 6.253906 L 47.160156 9.269531 L 47.140625 12.292969 L 41.207031 12.292969 L 41.207031 6.199219 L 38.242188 6.199219 Z M 38.261719 13.867188 "/>
<path style=" stroke:none;fill-rule:nonzero;fill:rgb(0%,0%,0%);fill-opacity:1;" d="M 70.019531 13.886719 L 70.019531 21.59375 L 72.988281 21.59375 L 73.007812 18.847656 L 73.039062 16.089844 L 73.835938 16.121094 C 74.269531 16.144531 75.167969 16.101562 75.828125 16.035156 C 77.605469 15.863281 78.582031 15.492188 79.542969 14.582031 C 80.59375 13.597656 80.996094 12.464844 80.910156 10.636719 C 80.867188 9.769531 80.804688 9.441406 80.582031 8.957031 C 80.210938 8.125 79.480469 7.367188 78.675781 6.96875 C 77.445312 6.359375 76.960938 6.285156 73.335938 6.234375 L 70.019531 6.179688 Z M 75.835938 8.660156 C 76.789062 8.796875 77.425781 9.152344 77.734375 9.707031 C 78.273438 10.691406 78.113281 12.207031 77.394531 12.957031 C 76.832031 13.546875 76.238281 13.707031 74.503906 13.769531 L 72.988281 13.8125 L 72.988281 8.550781 L 74.078125 8.550781 C 74.671875 8.550781 75.464844 8.605469 75.835938 8.660156 Z M 75.835938 8.660156 "/>
<path style=" stroke:none;fill-rule:nonzero;fill:rgb(0%,0%,0%);fill-opacity:1;" d="M 83.898438 13.875 L 83.898438 21.5625 L 84.417969 21.636719 C 85.09375 21.722656 86.683594 21.59375 86.78125 21.445312 C 86.820312 21.382812 86.863281 20.164062 86.863281 18.75 L 86.863281 16.164062 L 88.539062 16.089844 C 91.21875 15.972656 92.40625 15.585938 93.496094 14.496094 C 94.394531 13.578125 94.808594 12.496094 94.808594 11.011719 C 94.808594 8.605469 93.664062 7.164062 91.238281 6.5 C 90.507812 6.308594 90.03125 6.277344 87.160156 6.234375 L 83.898438 6.179688 Z M 89.714844 8.671875 C 90.921875 8.863281 91.546875 9.332031 91.800781 10.253906 C 92.085938 11.226562 91.800781 12.445312 91.144531 13.0625 C 90.613281 13.566406 90.03125 13.714844 88.378906 13.769531 L 86.863281 13.8125 L 86.863281 8.550781 L 87.957031 8.550781 C 88.546875 8.550781 89.34375 8.605469 89.714844 8.671875 Z M 89.714844 8.671875 "/>
<path style=" stroke:none;fill-rule:nonzero;fill:rgb(0%,0%,0%);fill-opacity:1;" d="M 5.085938 22.109375 C 4.332031 22.484375 4.035156 23.550781 4.449219 24.363281 C 5.011719 25.476562 6.589844 25.582031 7.339844 24.566406 C 7.648438 24.160156 7.703125 23.253906 7.445312 22.769531 C 7.035156 21.980469 5.953125 21.671875 5.085938 22.109375 Z M 5.085938 22.109375 "/>
<path style=" stroke:none;fill-rule:nonzero;fill:rgb(0%,0%,0%);fill-opacity:1;" d="M 13.582031 22.238281 C 13.082031 22.546875 12.816406 23.050781 12.816406 23.691406 C 12.816406 24.996094 14.140625 25.777344 15.316406 25.15625 C 15.785156 24.910156 16.207031 24.214844 16.207031 23.679688 C 16.207031 23.167969 15.785156 22.429688 15.347656 22.214844 C 14.851562 21.957031 14.027344 21.96875 13.582031 22.238281 Z M 13.582031 22.238281 "/>
</g>
</svg>
